<?xml version="1.0" encoding="UTF-8"?>
<!DOCTYPE svg PUBLIC "-//W3C//DTD SVG 1.1//EN" "http://www.w3.org/Graphics/SVG/1.1/DTD/svg11.dtd">
<!-- Creator: CorelDRAW -->
<svg xmlns="http://www.w3.org/2000/svg" xml:space="preserve" width="205mm" height="282.809mm" shape-rendering="geometricPrecision" text-rendering="geometricPrecision" image-rendering="optimizeQuality" fill-rule="evenodd" clip-rule="evenodd"
viewBox="0 0 205 282.809"
 xmlns:xlink="http://www.w3.org/1999/xlink">
 <g id="Layer_x0020_1">
  <metadata id="CorelCorpID_0Corel-Layer"/>
  <g id="_114277288">
   <path id="_114284200" fill="#FFEDD1" d="M70.9656 4.9153c2.1822,-3.3876 6.5631,-4.1801 10.2687,-4.7214 5.8767,-0.4018 12.5233,-0.519 17.4903,3.1309 3.6593,4.0909 -0.9831,6.5964 -4.6935,7.7964 -5.8374,1.5458 -12.1215,1.4955 -17.9032,-0.2623 -2.5838,-0.8484 -5.9381,-2.6732 -5.1623,-5.9436zm49.8578 82.4582c0.0489,0.3329 0.2386,0.6999 0.2036,1.722 -0.035,1.0221 -0.6261,1.226 -1.0998,1.4478 -0.0489,-0.7356 -0.0489,-0.2616 -0.0465,-1.4361 0.0024,-1.1744 0.6836,-1.5138 0.9427,-1.7337zm-56.0023 -20.2043c2.5226,-2.8238 6.3176,-3.9622 9.8892,-4.7548l0.0001 0c7.707,-1.8529 16.1006,-1.6909 23.3892,1.6351 5.977,2.2603 11.2565,5.8935 16.9265,8.7899 4.5039,2.0815 6.0552,7.5787 5.6701,12.1718 -1.9029,0.2064 -2.4833,-2.0985 -4.1186,-2.6118 -8.7116,-2.3999 -19.2092,-2.3774 -26.3415,3.8954 -2.9298,-0.162 -5.8877,-0.2122 -8.8009,0.1841 -1.1441,-1.278 -2.4277,-2.5392 -4.0963,-3.0807 -3.0583,-0.8538 -6.2616,-0.6752 -9.3982,-0.8873 -3.1585,-0.1172 -6.3563,0.0781 -9.4088,0.9319l0.0332 0.134c-2.0928,0.5972 -3.7782,1.9868 -5.4023,3.3653 0.1899,-1.2725 0.4242,-2.5393 0.6418,-3.806 1.2781,-6.6414 6.4068,-11.4295 11.0165,-15.9668l0 -0.0001zm-2.3886 8.5443c-1.0435,0.1785 -2.0815,0.3906 -3.1141,0.6083 0.7089,0.0558 1.4119,0.0949 2.1263,0.1172 5.9492,-0.7367 10.8547,3.94 16.7704,3.4824 -3.1141,-1.0883 -6.2895,-2.0425 -9.2641,-3.4935 -2.0203,-0.9934 -4.3363,-1.0325 -6.5185,-0.7144zm-4.1202 2.1711c-0.0214,0.0921 -0.0413,0.1835 -0.06,0.2745 0.0189,-0.0918 0.0388,-0.1834 0.06,-0.2745zm18.2677 -7.9641c7.8968,1.1721 15.8829,0.3852 23.7965,-0.0669 0.7646,-0.028 1.5347,-0.0446 2.2993,-0.0669l0.1786 -0.7646c-6.4738,-0.4576 -12.9141,0.5526 -19.3823,0.4911l0.0002 0c-2.6063,0.162 -5.2126,-0.1283 -7.8132,0.1395 0.3014,0.1004 0.6083,0.1898 0.9207,0.268l0.0002 -0.0002zm17.2837 17.3731c2.2436,-2.5839 5.8096,-3.5996 9.1357,-3.566 4.141,-0.134 8.9462,-0.2232 12.1384,2.8686 2.8686,2.5335 1.5793,6.8923 -0.067,9.7551 -1.7188,2.5282 -3.9902,4.6377 -6.4347,6.4514 2.5058,-0.1283 4.9391,-0.9487 7.0597,-2.2713l0.0001 0c2.4388,-1.8027 3.8842,-4.5484 4.4479,-7.4895 -0.0168,8.8903 -3.5104,17.2616 -7.11,25.2198 -0.519,-2.9524 -0.9711,-5.9436 -2.0649,-8.7453 -0.0502,4.4033 0.0446,8.8067 -0.0336,13.2154 0.1453,3.7336 -0.6138,7.484 -1.8918,10.9831 -2.5002,4.8609 -6.1668,9.0297 -10.0901,12.7969 -1.7468,1.9643 -3.9046,2.6266 -6.3323,3.0843 -10.2405,2.2619 -22.527,-1.0977 -26.0755,-12.0807 -1.1161,-3.2034 -2.9913,-6.2615 -2.8463,-9.7664 0.1117,-3.0471 -0.74,-5.9456 -0.712,-8.9871 -0.0725,-0.1062 -0.1362,-0.3998 -0.2031,-0.5059 -0.3572,-2.4668 -0.6977,-4.9612 -1.585,-7.2997 -0.4186,3.1532 -0.0726,6.3454 -0.1786,9.5154 0.0726,2.3941 -0.2121,4.8106 0.2288,7.1824 0.1786,3.036 1.105,5.9381 2.0704,8.801l0.0002 0 0.279 -0.1173c0.1124,1.0141 0.4408,1.9095 0.4408,2.9244 0.8316,0.8874 1.6631,1.8027 2.1151,2.9468 -2.0202,-1.2836 -4.2079,-3.343 -4.0293,-5.9269 0.1525,0.1219 0.3037,0.2451 0.4547,0.3686l-0.1198 -0.1007c-0.3126,-0.4912 -0.6027,-0.9878 -0.8707,-1.4956 -0.9598,-2.5674 -1.2445,-5.3075 -2.0091,-7.9249 -1.0435,-3.5271 -1.8696,-7.121 -2.4388,-10.7542 -0.1004,1.3172 -0.1004,2.6509 0.2959,3.9233 0.1506,4.2134 1.8082,8.2095 1.8918,12.4173 -1.1385,-3.1308 -2.4499,-6.2059 -3.2536,-9.4483 -0.8928,-3.6665 -0.7925,-7.4448 -0.4687,-11.1783 0.0391,-4.4815 -0.5303,-8.9349 -1.4845,-13.3103 1.0156,1.5848 2.4332,3.4044 4.5538,3.1086 -0.9878,-1.8362 -1.702,-3.8118 -2.2378,-5.8264 -0.6306,-2.3998 -1.2223,-5.553 0.865,-7.4281 3.0025,-2.344 7.0318,-2.0537 10.6203,-2.2992 3.4544,0.1449 7.5284,0.0892 10.1069,2.7847 1.3783,1.1831 0.9765,3.1589 0.5469,4.6991 -1.4119,4.6264 -4.9782,8.2708 -9.1191,10.6091 2.8518,0.3515 5.5919,-1.2613 7.4447,-3.315 3.1701,-3.4713 4.4313,-8.1536 5.3243,-12.6516 2.5727,-0.4746 5.2012,-0.4857 7.7796,-0.0671 0.4073,2.0146 0.9933,3.9848 1.6965,5.9158 0.2958,4.0794 0.48,8.2037 1.518,12.1884 0.2511,0.8594 0.3851,1.9644 1.4232,2.21l0.597 -1.1552c-0.8425,-3.8397 -1.73,-7.6736 -2.4611,-11.5412 1.3673,1.9645 3.1029,3.6331 4.9725,5.1121 0.8482,0.6977 2.0705,0.9375 2.6844,1.9086 -0.0614,-0.3015 -0.1117,-0.6027 -0.1674,-0.8985 -3.0918,-2.2435 -4.7604,-5.8375 -6.4348,-9.1582l0.0894 -0.1618c-1.0493,-1.6686 -1.4008,-3.9065 -0.0614,-5.5195zm16.6532 1.4455l0.0669 -0.9766c-2.9187,-2.1375 -6.8364,-2.6286 -10.2743,-1.6352 -2.0593,0.5413 -4.3419,1.5515 -4.9334,3.8006 1.0827,-1.2837 2.6231,-1.9645 4.2191,-2.3552 0.8986,1.345 2.2769,2.7235 4.0573,2.4109 1.5123,-0.2175 2.1486,-1.7188 2.7233,-2.9355l0.0002 0c1.5068,0.1786 3.0024,0.6363 4.1409,1.691zm-34.5955 0.6195l1.7078 0.6641c-1.0437,-1.0549 -2.104,-2.3383 -3.7113,-2.3719 -4.4591,-0.3125 -9.4931,-0.9319 -13.3214,1.9087 0.3347,0 0.999,-0.0111 1.3337,-0.0168 1.1218,-0.3683 2.238,-0.7478 3.3541,-1.1218 0.5749,2.8686 3.9513,3.4937 6.1277,1.9868 0.0448,-0.4576 0.1228,-1.3673 0.1619,-1.8192 1.479,-0.0113 2.9913,0.1115 4.3475,0.7701zm18.2214 21.6871c-1.2222,0.9209 -2.4334,1.8696 -3.7281,2.69 -1.2668,0.7867 -2.8685,1.0547 -4.2972,0.597 -1.5459,-0.5413 -2.7569,-1.7132 -4.2637,-2.3383 -1.2335,-0.2735 -2.5058,-0.145 -3.7559,-0.1283 -0.7926,-0.9935 -1.1553,-2.1934 -1.3673,-3.4211 -0.0724,1.3728 -0.5972,2.8853 0.0669,4.1857 0.9767,1.183 2.6622,0.9264 4.0294,1.1551 -6.2672,0.4855 -11.6807,5.1735 -13.3103,11.1951 7.4226,1.8305 14.9845,4.2805 22.7251,3.2649 5.5307,-1.3339 11.1226,-2.4109 16.6364,-3.8453 -0.2008,-5.274 -3.9902,-9.772 -8.6111,-11.9932 0.2287,-2.796 -0.8873,-5.3632 -2.3608,-7.6679 0.3071,1.7022 0.9712,3.3819 0.8484,5.1342 -0.5469,1.0437 -1.5906,1.6687 -2.4835,2.3776l-0.1283 -1.2055zm-3.0946 -7.5368c-0.006,-0.2627 -0.0135,-0.5255 -0.0222,-0.7883 0.0087,0.263 0.0162,0.5254 0.0222,0.7883zm-27.3935 34.0176l0 0.0002 0 -0.0002zm53.3805 4.2694c0.4131,-1.2167 1.2892,-2.21 2.2156,-3.0805 0.7592,14.605 1.8695,29.1877 3.1198,43.7591 0.625,5.8264 1.0714,11.6806 2.1095,17.4568 -3.2927,0.0334 -6.5686,-0.2512 -9.8502,-0.4241 -11.742,-0.4298 -23.4841,-0.8707 -35.2316,-1.0771 1.211,-11.8426 1.6519,-23.7966 3.9009,-35.5107 1.3729,-3.9122 4.9223,-6.6971 8.6279,-8.2987 5.5252,-2.2269 9.9507,-6.4626 13.74,-10.9495 3.0136,-3.7448 6.3176,-7.6626 7.1658,-12.5458 0.9319,-4.0963 1.8473,-8.2037 3.1196,-12.2108 0.8204,-2.7289 2.3776,-5.1566 3.2927,-7.8521 1.5404,-4.4034 2.9132,-8.9071 3.516,-13.5448 0.8093,-8.9963 1.2389,-18.0706 0.4967,-27.0947l0 -0.0002c1.9143,-0.491 3.3931,-1.8137 4.7437,-3.1866 -0.1228,5.4692 0.0781,10.9551 -0.5135,16.402 -0.2454,4.6878 -1.6407,9.2586 -1.4621,13.98 -0.3126,5.776 1.1161,11.5189 0.3794,17.2839 -0.4743,4.6543 -0.5692,9.5933 -2.7289,13.8404 -3.5495,4.3139 -7.6904,8.2484 -10.1572,13.3437 -2.1095,4.5817 -5.3855,8.4773 -7.7405,12.9251 -2.8964,5.3297 -4.7159,11.3013 -4.9335,17.3787 0.2567,4.3754 0.6362,8.7674 1.5123,13.0703 0.5025,-4.7158 1.0103,-9.4316 1.4845,-14.153 0.2959,-4.7883 1.6912,-9.4763 3.8787,-13.74 1.8194,-3.6499 4.2471,-6.9424 6.3734,-10.4137 1.0715,-1.7356 1.7914,-3.6667 2.941,-5.3577zm0.0352 24.8546c-0.0223,-0.3944 -0.0442,-0.7888 -0.0652,-1.1832 0.021,0.3944 0.043,0.7888 0.0652,1.1832zm-0.0964 -1.7748c-0.0205,-0.3944 -0.0403,-0.7887 -0.0596,-1.1832 0.0191,0.3945 0.0391,0.7888 0.0596,1.1832zm-82.8642 -18.3752c1.0215,0.9823 3.0527,2.0817 2.2548,3.7672 -1.8027,4.6432 -2.9913,9.4818 -4.1913,14.3091 -3.5046,14.8673 -6.0383,29.9411 -8.6168,44.9926 -1.6965,-0.3349 -3.4042,-0.5971 -5.1064,-0.8817 -5.0227,-0.8261 -10.0567,-1.5627 -15.0794,-2.3942 0.0392,-16.0394 -0.0446,-32.073 0.0391,-48.1067 6.7918,-5.5864 14.7111,-9.6436 22.887,-12.7913 2.5783,-1.1441 5.3687,0.1899 7.813,1.105zm99.774 1.0604c5.1399,1.3115 10.0621,3.4155 15.2914,4.4423 7.2663,1.1832 13.9241,4.6377 20.1188,8.483 -0.5748,2.2434 -1.1664,4.4814 -1.7636,6.7192 -5.2626,19.9402 -10.4416,39.9028 -15.6765,59.8542 -1.9698,-0.385 -3.9345,-0.8147 -5.8822,-1.3003 -4.2915,-10.1627 -6.7806,-20.9615 -9.3589,-31.6543 -3.2481,-13.874 -6.0162,-27.8595 -8.6838,-41.8618 -0.3906,-2.5392 -1.0883,-5.0338 -1.3115,-7.601 2.3998,1.0156 4.9726,1.6797 7.2663,2.9187zm-53.3918 -145.52c-2.7848,0.5133 -5.8877,1.144 -7.8019,3.4154 -1.2122,4.2156 9.6857,4.9484 11.9484,5.0674 4.4648,-0.0782 9.4595,-0.2456 13.143,-3.0918 1.479,-1.0827 0.212,-2.8741 -1.0659,-3.4321 -4.9559,-2.5394 -10.8101,-2.6175 -16.2236,-1.9589zm44.7081 6.2169c3.7503,-2.076 8.2371,-0.2232 11.2397,2.3385 6.1948,5.4411 9.6491,14.1138 8.014,22.3064 -0.5246,2.0482 -1.9532,3.622 -3.4044,5.0731 -13.0078,6.2673 -27.3614,-21.7417 -15.8495,-29.718l0.0002 0zm-1.7245 4.9501c-3.0526,8.685 3.7018,20.6167 11.8927,23.8024 1.8137,0.1506 3.901,0.3069 5.3296,-1.0659 3.4008,-2.9499 2.9176,-9.3749 1.5292,-13.1986 -1.7712,-5.5409 -6.8914,-13.5546 -13.5113,-13.6676 -2.4666,-0.0669 -4.4701,1.9254 -5.2402,4.1299l0 -0.0002zm-90.4315 -3.4768c1.1662,-1.0379 2.4442,-2.7066 4.2023,-2.1988 1.4454,1.1273 1.4174,3.0975 1.596,4.7437 -1.0045,-1.1664 -2.0872,-2.8183 -3.8786,-2.4723 -5.6024,2.6126 -7.9821,12.3021 -9.2754,17.6076 0.6921,-6.3957 3.0136,-12.8471 7.3555,-17.68l0.0002 -0.0002zm60.4178 65.876c2.1654,-0.2623 4.2414,-0.9654 6.3788,-1.3616 3.4546,-0.7648 6.9985,-0.9377 10.5199,-1.1441 -5.6422,-1.6911 -11.8146,-0.1842 -16.8987,2.5058l0 -0.0001zm-43.3964 -9.013c1.8583,0.8037 3.8116,1.3395 5.8264,1.5682 -2.3663,3.0415 -4.2582,6.485 -5.5083,10.1292 -1.3003,5.2013 -1.2056,10.6314 -1.0493,15.9612 0.402,4.872 0.5526,9.7777 1.3562,14.6106 0.1674,0.7588 0.0391,1.5291 -0.1116,2.2769 -1.1607,-2.2491 -1.7133,-4.738 -2.3383,-7.1769 -1.8753,-8.6448 -3.0751,-17.641 -1.4567,-26.4307 0.6362,-3.7671 1.8249,-7.417 3.2816,-10.9385zm25.0132 71.5684c2.4668,-0.3014 4.8274,-1.1607 7.2997,-1.4845 3.555,-0.6697 7.1881,-0.7646 10.7654,-1.2444 -6.0328,-1.6185 -12.7578,-0.547 -18.0651,2.7289zm20.4537 -23.6292c3.4545,2.6732 7.0541,5.7595 8.3879,10.079 -2.7123,0.2623 -5.4636,-0.0613 -8.1424,0.4911 1.1441,-3.4433 1.0269,-7.1769 -0.2455,-10.5701zm-6.7752 1.8919c1.5683,-0.2958 2.9021,-1.1998 4.3029,-1.9086 1.451,3.3205 1.5347,6.9984 1.8416,10.5534 -1.6128,0.184 -3.2033,0.5301 -4.766,0.9487 -0.5078,-3.1922 -0.9319,-6.3956 -1.3785,-9.5935zm-15.3584 8.3823c2.6176,-3.7726 6.1445,-6.9592 10.4529,-8.6501 -0.8426,3.0191 -2.5783,5.8376 -2.8406,9.0577 -2.5392,-0.095 -5.0897,-0.067 -7.6123,-0.4074l0 -0.0002zm12.9419 -8.4549l2.0146 0.0224c-0.4462,3.1921 -0.625,6.4124 -0.8705,9.6269 -1.8305,-0.2009 -3.6442,-0.5581 -5.4692,-0.7924 1.4287,-2.9579 2.7681,-5.9603 4.3251,-8.8568l0 -0.0001zm-33.7248 7.9081c1.8641,6.6355 5.1343,12.8805 9.4706,18.227 4.7326,4.3251 10.0009,8.4493 12.9699,14.2812 2.0091,3.7559 1.5961,8.1593 1.105,12.2332 -0.6027,7.5005 -1.9645,14.9063 -3.1867,22.3289 -0.5356,2.3271 -0.7032,4.7437 -1.479,7.0206 -6.5964,-0.1786 -13.1986,-0.1563 -19.7951,-0.0781 -4.0738,0.0335 -8.1591,0.0447 -12.1941,0.6084 0.1117,-1.6018 0.3683,-3.1867 0.6921,-4.7605 2.3997,-13.3661 5.0562,-26.6986 8.5553,-39.8248 1.3451,-4.8106 2.6957,-9.6324 4.5708,-14.2646 2.3941,7.1323 5.7705,13.9186 10.1124,20.0744 1.1831,1.5011 1.9812,3.3987 3.6554,4.4423 -0.1171,-0.2177 -0.346,-0.6586 -0.4577,-0.8818 -1.6742,-4.554 -3.6833,-9.0018 -5.7705,-13.3885 -3.4545,-6.6634 -6.0551,-13.7733 -7.6346,-21.1121 -0.3069,-1.6185 -0.5859,-3.2536 -0.6138,-4.9056zm23.8524 29.1095c2.9746,1.0604 6.1278,1.5125 9.2754,1.5627 -1.8027,1.5291 -3.4545,3.2759 -4.5206,5.4078 -0.7534,-0.1563 -1.5012,-0.3292 -2.2323,-0.5414 -0.1674,-2.3495 -1.3561,-4.4423 -2.5225,-6.4291z"/>
   <path id="_114275896" fill="black" d="M80.492 2.0412c5.4135,-0.6586 11.2677,-0.5805 16.2236,1.9589 1.2779,0.558 2.5447,2.3494 1.0659,3.4321 -3.6833,2.8462 -8.6782,3.0136 -13.143,3.0918 -2.2627,-0.119 -13.1606,-0.8518 -11.9484,-5.0674 1.9142,-2.2714 5.0171,-2.9019 7.8019,-3.4154zm-46.1452 238.721l10.8687 0c2.1524,0 3.7602,0.0886 4.8173,0.2723 1.057,0.1772 2.0004,0.5508 2.8358,1.1205 0.8356,0.5697 1.5256,1.323 2.0826,2.2723 0.5571,0.9433 0.8356,2.0067 0.8356,3.1777 0,1.2725 -0.3418,2.4435 -1.0256,3.5069 -0.6898,1.0636 -1.6204,1.8612 -2.7915,2.3929 1.6522,0.4811 2.9309,1.3038 3.8171,2.4623 0.8926,1.1648 1.3357,2.5321 1.3357,4.1019 0,1.2344 -0.2849,2.4372 -0.8609,3.6083 -0.5762,1.1646 -1.361,2.1015 -2.3548,2.7977 -0.9938,0.6964 -2.2218,1.1268 -3.684,1.2913 -0.9116,0.0951 -3.1208,0.1582 -6.6214,0.1837l-9.2546 0 0 -27.1878zm95.5343 -6.9945l-1.1533 0.1274c-0.0273,-0.2375 -0.101,-0.4124 -0.2198,-0.5267 -0.1187,-0.1129 -0.2736,-0.1694 -0.4629,-0.1694 -0.2503,0 -0.4631,0.113 -0.6382,0.3401 -0.1735,0.2256 -0.2821,0.6959 -0.3284,1.4107 0.298,-0.3503 0.6655,-0.5252 1.1069,-0.5252 0.4977,0 0.9231,0.1895 1.2776,0.5685 0.3545,0.3776 0.5323,0.8668 0.5323,1.4657 0,0.6366 -0.1865,1.146 -0.5598,1.5309 -0.3718,0.3834 -0.8522,0.5758 -1.4368,0.5758 -0.6264,0 -1.1431,-0.2431 -1.5467,-0.7307 -0.4037,-0.4876 -0.6062,-1.2863 -0.6062,-2.3975 0,-1.1385 0.2098,-1.9589 0.6308,-2.4624 0.4211,-0.5036 0.968,-0.7554 1.6408,-0.7554 0.4715,0 0.8623,0.1332 1.1719,0.3966 0.3096,0.2646 0.5064,0.6479 0.5918,1.1516zm-2.6998 2.5986c0,0.3861 0.0883,0.6857 0.2663,0.8955 0.1778,0.2112 0.3818,0.3169 0.6104,0.3169 0.2214,0 0.4036,-0.0869 0.5514,-0.259 0.1474,-0.1721 0.2198,-0.4557 0.2198,-0.8479 0,-0.4036 -0.0781,-0.7002 -0.2372,-0.8883 -0.1578,-0.1881 -0.356,-0.2821 -0.5933,-0.2821 -0.2286,0 -0.4225,0.0896 -0.5801,0.2691 -0.1591,0.1794 -0.2373,0.4455 -0.2373,0.7958zm-6.1462 0.4948l1.1863 -0.1215c0.0332,0.2675 0.1346,0.4803 0.3009,0.6366 0.1664,0.1576 0.3589,0.2357 0.576,0.2357 0.2488,0 0.46,-0.1012 0.6323,-0.3023 0.1721,-0.2027 0.2589,-0.5078 0.2589,-0.9144 0,-0.3804 -0.0854,-0.6671 -0.2575,-0.858 -0.1708,-0.1911 -0.3936,-0.2864 -0.6671,-0.2864 -0.3414,0 -0.6481,0.1517 -0.9202,0.4542l-0.9665 -0.1403 0.6107 -3.2337 3.1498 0 0 1.114 -2.2472 0 -0.1865 1.0563c0.2663,-0.1332 0.5368,-0.1998 0.8146,-0.1998 0.5282,0 0.9767,0.1924 1.3428,0.5758 0.3673,0.3851 0.5511,0.884 0.5511,1.4977 0,0.5106 -0.1474,0.968 -0.4442,1.3685 -0.4051,0.5485 -0.965,0.822 -1.6827,0.822 -0.5743,0 -1.0418,-0.1533 -1.4034,-0.4616 -0.3618,-0.3082 -0.5788,-0.7219 -0.6481,-1.2428zm-35.149 3.6797l10.8687 0c2.1522,0 3.7602,0.0885 4.8172,0.2722 1.0571,0.1772 2.0004,0.5508 2.8358,1.1205 0.8356,0.5697 1.5255,1.323 2.0827,2.2723 0.557,0.9434 0.8356,2.0068 0.8356,3.1777 0,1.2726 -0.342,2.4435 -1.0256,3.5069 -0.69,1.0636 -1.6204,1.8612 -2.7915,2.3929 1.6522,0.4811 2.9309,1.3039 3.8171,2.4623 0.8924,1.1648 1.3355,2.5321 1.3355,4.1019 0,1.2344 -0.2848,2.4372 -0.8608,3.6083 -0.5761,1.1647 -1.3609,2.1015 -2.3549,2.7977 -0.9936,0.6964 -2.2218,1.1268 -3.6839,1.2914 -0.9117,0.095 -3.1209,0.1582 -6.6215,0.1836l-9.2544 0 0 -27.1877zm5.4944 4.5261l0 6.2856 3.5955 0c2.1396,0 3.469,-0.0316 3.988,-0.0947 0.9368,-0.1078 1.6775,-0.4306 2.2155,-0.9685 0.5382,-0.5382 0.804,-1.2471 0.804,-2.127 0,-0.8419 -0.2278,-1.5256 -0.6901,-2.051 -0.4684,-0.5253 -1.1584,-0.8419 -2.0698,-0.9495 -0.5445,-0.0633 -2.108,-0.0949 -4.6907,-0.0949l-3.1524 0zm0 10.8116l0 7.2671 5.0769 0c1.9812,0 3.2345,-0.0506 3.7662,-0.1647 0.8167,-0.1455 1.4813,-0.5127 1.994,-1.0824 0.5129,-0.576 0.7723,-1.3483 0.7723,-2.3104 0,-0.8166 -0.2026,-1.5067 -0.5951,-2.0764 -0.3988,-0.5696 -0.9685,-0.9874 -1.7153,-1.247 -0.747,-0.2595 -2.3738,-0.3862 -4.8679,-0.3862l-4.4311 0zm25.7762 -1.8355l-4.7286 -0.8546c0.5317,-1.9055 1.4432,-3.3107 2.7409,-4.2284 1.3042,-0.9117 3.2283,-1.3738 5.7857,-1.3738 2.3295,0 4.0576,0.2784 5.1971,0.8292 1.133,0.5507 1.9369,1.2471 2.399,2.0954 0.4621,0.8481 0.6964,2.399 0.6964,4.6652l-0.0569 6.0831c0,1.7281 0.0822,3.0068 0.2531,3.8298 0.1645,0.8166 0.481,1.7028 0.9368,2.6396l-5.1589 0c-0.1329,-0.3482 -0.3039,-0.8609 -0.5001,-1.5381 -0.0823,-0.3102 -0.1457,-0.5129 -0.1837,-0.614 -0.8925,0.8671 -1.842,1.5127 -2.8548,1.9495 -1.0127,0.4306 -2.0953,0.6457 -3.2474,0.6457 -2.0256,0 -3.6272,-0.5508 -4.7918,-1.6458 -1.1711,-1.1014 -1.7534,-2.4942 -1.7534,-4.1778 0,-1.1077 0.2657,-2.1017 0.7974,-2.9752 0.5319,-0.8734 1.2787,-1.5382 2.2347,-2.0003 0.9558,-0.4621 2.3421,-0.8672 4.1462,-1.2154 2.4308,-0.4558 4.121,-0.8862 5.0577,-1.2785l0 -0.5192c0,-1.0065 -0.2468,-1.7155 -0.7407,-2.146 -0.4937,-0.4239 -1.4242,-0.6394 -2.7979,-0.6394 -0.9303,0 -1.652,0.1837 -2.171,0.5508 -0.5193,0.3609 -0.9369,1.0002 -1.2598,1.9182zm6.9694 4.2284c-0.6648,0.2215 -1.7218,0.4874 -3.1714,0.7976 -1.4432,0.3101 -2.3864,0.614 -2.836,0.9051 -0.6771,0.4874 -1.0191,1.0952 -1.0191,1.8358 0,0.7342 0.2723,1.361 0.8166,1.8927 0.5445,0.5317 1.2344,0.7976 2.0764,0.7976 0.9431,0 1.8357,-0.3102 2.6902,-0.9242 0.6331,-0.4685 1.0445,-1.0445 1.2408,-1.7281 0.1392,-0.4431 0.2025,-1.2914 0.2025,-2.5384l0 -1.0381zm-41.3704 -32.3686l33.854 0 -116.476 -15.9482 -0.1338 -201.512c1.345,0.0279 2.69,0.0557 4.0293,0.2343 6.0106,0.9319 12.049,1.6799 18.0818,2.4389 2.5281,0.3626 5.0507,0.8984 7.6235,0.837 1.7413,-2.1207 3.4322,-4.6487 6.15,-5.5528 1.6018,-0.6418 2.7291,1.8249 4.2414,0.9487 2.6119,-1.3896 5.7427,-2.1932 8.5945,-0.9878 4.0517,1.7133 7.9079,3.8731 11.9429,5.631l0.7199 -0.0892c3.1588,-2.3552 5.8766,-5.419 9.5823,-6.9872 -0.7756,3.2702 2.5783,5.0953 5.1623,5.9436 5.7817,1.7578 12.0656,1.8081 17.9032,0.2623 3.7107,-1.2004 8.3525,-3.7052 4.6935,-7.7964 5.5697,0.2287 9.9674,4.1409 14.3706,7.0764 3.9122,-1.652 8.1927,-3.6387 12.5345,-2.5951l-0.4296 0.452c-11.5125,7.9755 2.8415,35.9854 15.8493,29.718 -1.9978,3.5325 -5.7482,5.4356 -8.7674,7.9638 -2.5384,1.8948 -2.5512,9.9193 -0.0726,11.9318 1.7804,1.5792 4.3587,0.999 6.5353,1.2166 0.2064,3.8898 0.2009,7.7852 -0.0671,11.6694 -2.5894,-0.0837 -5.14,-0.5414 -7.7127,-0.7756 -0.1449,3.0637 -0.212,6.1277 -0.2232,9.1915 0.0001,4.7324 -1.0993,9.3646 -1.6965,14.0358 -0.5023,5.3519 -0.1005,10.7374 0.3627,16.0783 0.1005,6.122 -0.5078,12.3001 -2.0258,18.2437 -0.9264,3.8228 -4.6322,5.91 -6.4627,9.2027 0.7648,2.5617 3.3653,3.9791 5.7259,4.8275 7.6458,2.9354 15.3305,5.9324 23.3391,7.7406 7.0375,1.1105 13.3883,4.5204 19.544,7.9247 2.199,-7.4224 3.9065,-14.9789 5.9379,-22.4405 8.3993,-32.0954 16.7816,-64.1848 25.1751,-96.2802 -0.8481,-0.2735 -1.6965,-0.5581 -2.5671,-0.7367 -17.4736,-2.1877 -34.9582,-4.3586 -52.4039,-6.7806 -0.3302,-1.2906 -0.2259,-2.4896 -0.173,-3.8173 8.6838,1.2278 17.4066,2.1654 26.0735,3.555l33.4291 4.1465 -51.1367 196.13 -17.2769 -2.3656 0 52.6335 0 1.5379 -1.538 0 -52.2927 0 -1.538 0 -1.538 0 -52.2927 0 -1.538 0 0 -1.5379 0 -53.8308 0 -1.538 1.538 0 52.2927 0 1.538 0 1.538 0zm50.7547 3.076l-50.7547 0 0 50.7548 50.7547 0 0 -50.7548zm-61.5032 7.8801l1.1863 -0.1215c0.0332,0.2677 0.1346,0.4803 0.3009,0.6366 0.1664,0.1577 0.3589,0.2358 0.576,0.2358 0.2488,0 0.46,-0.1012 0.6323,-0.3024 0.1721,-0.2025 0.259,-0.5078 0.259,-0.9144 0,-0.3805 -0.0855,-0.667 -0.2577,-0.8581 -0.1707,-0.1909 -0.3935,-0.2863 -0.667,-0.2863 -0.3414,0 -0.6481,0.1519 -0.9202,0.4542l-0.9665 -0.1403 0.6105 -3.2337 3.1499 0 0 1.114 -2.247 0 -0.1866 1.0563c0.2663,-0.1332 0.5368,-0.1998 0.8146,-0.1998 0.5282,0 0.9767,0.1925 1.3426,0.5758 0.3675,0.3851 0.5513,0.8842 0.5513,1.4977 0,0.5108 -0.1476,0.968 -0.4442,1.3687 -0.4051,0.5484 -0.9652,0.8218 -1.6827,0.8218 -0.5743,0 -1.0418,-0.1533 -1.4035,-0.4615 -0.3617,-0.3083 -0.5787,-0.722 -0.648,-1.2429zm-4.8877 -0.0506l1.1517 -0.1389c0.0377,0.2936 0.1362,0.5179 0.2981,0.6728 0.1605,0.1563 0.3559,0.2344 0.5847,0.2344 0.2458,0 0.4527,-0.0941 0.6207,-0.2808 0.1677,-0.1866 0.2515,-0.4369 0.2515,-0.7538 0,-0.2994 -0.0794,-0.5367 -0.2415,-0.7119 -0.1606,-0.1763 -0.3574,-0.2632 -0.5888,-0.2632 -0.1519,0 -0.3343,0.0288 -0.5469,0.0883l0.1316 -0.9695c0.3227,0.0072 0.5687,-0.0621 0.7378,-0.2097 0.1693,-0.149 0.2547,-0.3458 0.2547,-0.592 0,-0.2098 -0.0621,-0.376 -0.1865,-0.5005 -0.1245,-0.1245 -0.2909,-0.1865 -0.4964,-0.1865 -0.2041,0 -0.3775,0.0708 -0.5209,0.2126 -0.1446,0.1403 -0.2329,0.3472 -0.2633,0.6179l-1.0982 -0.1853c0.0766,-0.3761 0.1911,-0.6772 0.3458,-0.9014 0.1533,-0.2243 0.369,-0.4008 0.6441,-0.5294 0.2762,-0.1288 0.5843,-0.194 0.9257,-0.194 0.586,0 1.0549,0.1867 1.408,0.5599 0.2907,0.3053 0.4369,0.6497 0.4369,1.0346 0,0.5454 -0.298,0.9808 -0.8941,1.3049 0.3558,0.0768 0.6394,0.2475 0.8534,0.5137 0.2128,0.2648 0.3199,0.586 0.3199,0.9621 0,0.5457 -0.1996,1.01 -0.5975,1.3949 -0.398,0.3834 -0.8943,0.5758 -1.4875,0.5758 -0.5627,0 -1.0286,-0.162 -1.3991,-0.4847 -0.3703,-0.3242 -0.5844,-0.7465 -0.6439,-1.2703zm12.5602 -7.8295l-50.7548 0 0 50.7548 50.7548 0 0 -50.7548zm-39.8383 16.3096l0 6.2856 3.5955 0c2.1395,0 3.4688,-0.0316 3.9878,-0.0948 0.9369,-0.1077 1.6775,-0.4306 2.2156,-0.9684 0.5382,-0.5382 0.8039,-1.2471 0.8039,-2.127 0,-0.8419 -0.2278,-1.5256 -0.6899,-2.051 -0.4685,-0.5254 -1.1584,-0.8419 -2.07,-0.9495 -0.5443,-0.0633 -2.1079,-0.0949 -4.6905,-0.0949l-3.1524 0zm0 10.8116l0 7.2671 5.0767 0c1.9813,0 3.2347,-0.0507 3.7664,-0.1647 0.8166,-0.1456 1.4811,-0.5127 1.994,-1.0824 0.5127,-0.576 0.7722,-1.3483 0.7722,-2.3105 0,-0.8166 -0.2025,-1.5066 -0.595,-2.0763 -0.3988,-0.5697 -0.9685,-0.9874 -1.7155,-1.247 -0.747,-0.2595 -2.3737,-0.3862 -4.8677,-0.3862l-4.4311 0zm26.8713 11.85l-5.2098 0 0 -19.6927 4.8363 0 0 2.7977c0.8291,-1.323 1.5762,-2.1966 2.2345,-2.6144 0.6647,-0.4176 1.4116,-0.6329 2.2535,-0.6329 1.1901,0 2.3294,0.3292 3.4308,0.9874l-1.6141 4.5388c-0.8737,-0.5635 -1.6901,-0.8482 -2.4435,-0.8482 -0.7343,0 -1.3483,0.1961 -1.8547,0.6013 -0.5127,0.3986 -0.9052,1.1268 -1.1963,2.1776 -0.2914,1.0507 -0.4367,3.2536 -0.4367,6.6021l0 6.0833zm-33.6686 -258.219c-4.3421,4.8331 -6.6636,11.2845 -7.3557,17.6802 1.2933,-5.3055 3.673,-14.995 9.2754,-17.6076 1.7914,-0.346 2.8741,1.3059 3.8786,2.4723 -0.1786,-1.6463 -0.1506,-3.6162 -1.596,-4.7437 -1.7581,-0.5078 -3.0361,1.1609 -4.2025,2.199l0.0002 -0.0002zm-28.8362 2.7235c-0.1506,0.6586 -0.3405,1.3116 -0.3572,1.9868 0.039,43.1675 0.0057,86.3296 0.0223,129.497 0.0167,2.2211 -0.2009,4.4759 0.3404,6.6523 2.6844,-2.355 5.9771,-3.795 9.1023,-5.4468 9.8,-4.6768 20.4148,-7.4505 31.1466,-8.9517 1.959,-0.2233 3.9512,-0.3237 5.8264,-1.0046 -0.8259,-4.8944 -1.7914,-9.7664 -1.9923,-14.7388 -0.028,-3.6053 -2.4891,-6.4682 -3.5495,-9.7832 -2.9021,-7.9695 -4.8609,-16.3295 -5.4859,-24.8012 -0.3294,-9.0019 1.6687,-17.9925 5.1957,-26.2521 0.8985,-3.7002 0.9599,-7.5732 1.9644,-11.2677 -2.0257,-1.5237 -4.6209,-1.8249 -6.909,-2.8016 -2.8071,-1.1719 -5.8375,-2.0314 -8.2764,-3.8955 -1.9978,-1.6463 0.0391,-5.4579 -2.6341,-6.3286 -1.2055,-0.6195 -2.9355,-0.8259 -3.3316,-2.3494 -1.9144,-5.8543 0.6193,-11.7922 2.4164,-17.3229 -7.8244,-1.094 -15.6821,-1.9142 -23.4785,-3.1923zm70.5025 49.9595c-3.5717,0.7924 -7.3667,1.931 -9.8893,4.7549 -4.6097,4.5371 -9.7386,9.3255 -11.0165,15.9668 -0.2176,1.2667 -0.4521,2.5337 -0.6418,3.806 1.6241,-1.3785 3.3095,-2.7681 5.4023,-3.3653l-0.0336 -0.134c3.0528,-0.8538 6.2505,-1.049 9.4092,-0.9319 3.1366,0.212 6.3399,0.0335 9.3982,0.8873 1.6686,0.5415 2.9522,1.8027 4.0963,3.0807 2.9132,-0.3963 5.871,-0.3459 8.8009,-0.1841 7.1323,-6.2728 17.6299,-6.2953 26.3415,-3.8954 1.6353,0.5133 2.2157,2.8182 4.1186,2.6118 0.3852,-4.5931 -1.1664,-10.0901 -5.6701,-12.1718 -5.67,-2.8966 -10.9495,-6.5296 -16.9265,-8.7899 -7.2886,-3.3262 -15.6822,-3.4879 -23.3893,-1.6351l0.0001 0zm-24.6449 4.18c-5.0722,12.262 -4.616,24.5029 -1.8249,37.3692 0.625,2.4387 1.1774,4.9278 2.3383,7.1769 0.1507,-0.7478 0.279,-1.5179 0.1116,-2.2769 -0.8036,-4.8329 -0.9544,-9.7386 -1.3562,-14.6106 -0.1563,-5.3298 -0.251,-10.7599 1.0493,-15.9612 1.2501,-3.6442 3.142,-7.0875 5.5083,-10.1292 -2.0147,-0.2289 -3.9681,-0.7645 -5.8264,-1.5682zm73.1924 3.8284c0.7422,9.0241 0.3124,18.0986 -0.4967,27.0949 -0.6028,4.6377 -1.9756,9.1414 -3.516,13.5448 -0.9151,2.6953 -2.4723,5.1232 -3.2927,7.8521 -1.2723,4.0069 -2.1877,8.1145 -3.1196,12.2108 -0.8482,4.8832 -4.1522,8.801 -7.1658,12.5458 -3.7893,4.4869 -8.215,8.7228 -13.74,10.9495 -3.7056,1.6016 -7.255,4.3865 -8.6279,8.2987 -2.249,11.714 -2.6899,23.6682 -3.9009,35.5107 11.7476,0.2064 23.4896,0.6473 35.2316,1.0771 3.2816,0.1729 6.5575,0.4575 9.8502,0.4241 -1.0381,-5.7762 -1.4845,-11.6304 -2.1095,-17.4568 -1.2501,-14.5716 -2.3608,-29.1541 -3.1198,-43.7591 -2.4128,2.2677 -3.4441,5.6642 -5.1566,8.4382 -4.7935,7.8253 -9.661,14.5872 -10.2521,24.1537 -0.4742,4.7214 -0.9822,9.4372 -1.4845,14.153 -0.8761,-4.3029 -1.2556,-8.6949 -1.5123,-13.0703 0.2176,-6.0774 2.0371,-12.049 4.9335,-17.3787 2.355,-4.448 5.631,-8.3432 7.7405,-12.9251 2.4668,-5.0953 6.6077,-9.0298 10.1572,-13.3437 2.1598,-4.2471 2.2546,-9.1861 2.7289,-13.8404 0.7368,-5.7652 -0.692,-11.5077 -0.3794,-17.2839 -0.1786,-4.7214 1.2165,-9.292 1.4621,-13.98 0.5916,-5.4469 0.3907,-10.9328 0.5135,-16.402 -1.3506,1.3729 -2.8295,2.6956 -4.7437,3.1868l0 -0.0002zm-29.3942 16.8708c-1.3394,1.6129 -0.9879,3.8509 0.0614,5.5195l-0.0892 0.1618c1.6742,3.3207 3.3428,6.9147 6.4346,9.1582 0.0559,0.2957 0.106,0.5972 0.1674,0.8985 -0.6138,-0.9711 -1.8362,-1.2109 -2.6844,-1.9086 -1.8696,-1.479 -3.6052,-3.1476 -4.9725,-5.1121 0.7311,3.8674 1.6184,7.7016 2.4611,11.5412l-0.597 1.1552c-1.0381,-0.2456 -1.1721,-1.3506 -1.4232,-2.21 -1.038,-3.9849 -1.2222,-8.1089 -1.518,-12.1884 -0.7032,-1.931 -1.2892,-3.9012 -1.6965,-5.9158 -2.5783,-0.4186 -5.2069,-0.4073 -7.7796,0.0671 -1.1799,5.9428 -4.6586,16.9667 -12.769,15.9666 4.1409,-2.3385 7.7072,-5.9827 9.1191,-10.6091 0.4296,-1.5402 0.8314,-3.516 -0.5469,-4.6991 -2.5783,-2.6955 -6.6525,-2.6397 -10.1069,-2.7847 -3.5885,0.2453 -7.6179,-0.0448 -10.6203,2.2992 -3.2739,2.9412 -0.3318,10.0858 1.3728,13.2545 -2.1206,0.2956 -3.5382,-1.5236 -4.5538,-3.1086 0.9542,4.3752 1.5234,8.8289 1.4845,13.3103 -0.3237,3.7335 -0.4243,7.5118 0.4687,11.1783 0.8037,3.2424 2.1151,6.3175 3.2536,9.4483 -0.0836,-4.208 -1.7412,-8.2037 -1.8918,-12.4173 -0.3963,-1.2725 -0.3963,-2.6061 -0.2959,-3.9233 0.5692,3.633 1.3952,7.2272 2.4388,10.7542 0.9288,3.1788 1.0685,6.575 2.8798,9.4205l-0.3349 -0.2679c-0.1786,2.5839 2.0091,4.6433 4.0293,5.9269 -0.452,-1.1441 -1.2835,-2.0594 -2.1151,-2.9468 0,-1.0148 -0.3283,-1.9103 -0.4409,-2.9242l-0.2789 0.1171c-0.9655,-2.8631 -1.892,-5.765 -2.0706,-8.801 -0.4408,-2.3718 -0.1562,-4.7883 -0.2288,-7.1824 0.106,-3.17 -0.24,-6.3622 0.1786,-9.5154 0.8873,2.3383 1.2278,4.8331 1.585,7.2997 0.0669,0.106 0.212,0.3181 0.2846,0.4243 -0.028,3.0415 0.7422,6.0216 0.6305,9.0687 -0.145,3.5049 1.7301,6.5631 2.8463,9.7664 3.5487,10.983 15.2304,13.9705 25.4709,11.7086 2.4277,-0.4576 5.1901,-0.7478 6.9369,-2.7122 3.9234,-3.7672 7.5899,-7.936 10.0901,-12.7969 2.8197,-7.7204 1.8336,-16.1324 1.9254,-24.1985 1.0938,2.8017 1.5459,5.793 2.0649,8.7453 3.5996,-7.9584 7.0932,-16.3295 7.11,-25.2198 -1.1335,5.9146 -5.5922,9.458 -11.5077,9.7608 2.4445,-1.8137 4.7159,-3.9232 6.4347,-6.4514 1.6465,-2.863 2.9354,-7.2215 0.067,-9.7551 -3.1922,-3.092 -7.9974,-3.0026 -12.1384,-2.8686 -3.3261,-0.0336 -6.8923,0.9822 -9.1357,3.566zm26.096 3.1587c1.3562,-0.4296 1.0547,-1.9364 0.837,-3.0024 -1.0156,0.692 -0.9152,1.9144 -0.837,3.0026l0 -0.0002zm-67.3438 33.8087c0.0279,1.6518 0.3069,3.2871 0.6138,4.9056 1.5795,7.3388 4.1801,14.4487 7.6346,21.1121 2.0872,4.3867 4.0963,8.8345 5.7705,13.3885 0.1117,0.2232 0.3405,0.6641 0.4577,0.8818 -1.6742,-1.0436 -2.4723,-2.9412 -3.6554,-4.4423 -4.3419,-6.1558 -7.7183,-12.9421 -10.1124,-20.0744 -1.8751,4.6322 -3.2258,9.454 -4.5708,14.2646 -3.4991,13.1262 -6.1556,26.4587 -8.5553,39.8248 -0.3236,1.5738 -0.5804,3.1587 -0.6921,4.7605 4.035,-0.5638 8.1201,-0.5749 12.1941,-0.6084 6.5967,-0.0782 13.1987,-0.1005 19.7951,0.0781 0.7758,-2.2769 0.9432,-4.6934 1.479,-7.0206 1.2222,-7.4226 2.584,-14.8282 3.1867,-22.3289 0.4911,-4.0741 0.9041,-8.4773 -1.105,-12.2332 -2.969,-5.8319 -8.2373,-9.9561 -12.9699,-14.2812 -4.3363,-5.3465 -7.6067,-11.5913 -9.4706,-18.227zm-4.4869 18.2103c-6.3343,18.7291 -11.5803,37.8268 -15.4143,57.2201 -0.558,3.4711 -1.479,6.8978 -1.5682,10.4249 34.7462,4.8832 69.5259,9.5265 104.283,14.3651 0.8539,0.117 1.73,0.1004 2.595,0.0669 -0.9487,-4.2917 -2.5559,-8.4047 -3.4936,-12.7019 -5.0784,-18.8186 -8.1145,-38.1004 -11.1617,-57.3261 -0.184,3.538 0.0336,7.082 0.4075,10.5979 0.9209,11.3458 1.7133,22.7195 3.3652,33.9927 0.0391,2.0147 2.3608,2.3551 3.3541,3.767 -2.8238,-0.0446 -5.6423,-0.1394 -8.4661,-0.1784 -10.9608,-0.6922 -21.9662,-0.5359 -32.9325,-0.0113 -4.9166,0.0894 -9.8446,-0.0223 -14.7278,0.5972 -13.3699,0.5789 -26.7003,1.0693 -40.0646,1.9588 -0.1729,-2.835 0.7087,-5.5807 1.1887,-8.3433 3.5327,-18.2046 7.8021,-36.2977 13.7623,-53.8715 0.5972,-1.5291 1.1217,-3.0975 1.239,-4.7437 -1.691,0.6306 -1.7468,2.7457 -2.3663,4.1856l0.0001 0zm78.4885 2.1709c0.2234,2.567 0.9209,5.0618 1.3115,7.601 2.6676,14.0023 5.4357,27.9878 8.6838,41.8618 2.5783,10.6928 5.0674,21.4917 9.3589,31.6543 1.9479,0.4855 3.9122,0.9153 5.8822,1.3003 5.2349,-19.9514 10.4138,-39.914 15.6765,-59.8542 0.5974,-2.238 1.1888,-4.4758 1.7636,-6.7192 -6.1947,-3.8453 -12.8527,-7.2998 -20.1188,-8.483 -5.2292,-1.0268 -10.1516,-3.1308 -15.2914,-4.4423 -2.2937,-1.239 -4.8666,-1.9031 -7.2663,-2.9187zm-100.321 0.7533c-8.1759,3.1477 -16.0952,7.2049 -22.887,12.7913 -0.0837,16.0337 0,32.0673 -0.0391,48.1067 5.0227,0.8315 10.0567,1.5682 15.0794,2.3942 1.7022,0.2846 3.4099,0.5468 5.1064,0.8817 2.5785,-15.0515 5.1122,-30.1253 8.6168,-44.9926 1.2,-4.8273 2.3886,-9.6659 4.1913,-14.3091 0.7981,-1.6855 -1.2335,-2.7849 -2.2548,-3.7672 -2.4443,-0.9151 -5.2347,-2.2491 -7.813,-1.105zm50.1715 7.975c1.1664,1.9868 2.3551,4.0796 2.5225,6.4291 0.7311,0.2122 1.4789,0.3851 2.2323,0.5414 1.0661,-2.1319 2.7179,-3.8787 4.5206,-5.4078 -3.1476,-0.0503 -6.3008,-0.5023 -9.2754,-1.5627zm47.0073 -140.162c0.7701,-2.2043 2.7736,-4.1966 5.2402,-4.1297 3.2706,0.0559 6.0441,2.1543 8.1649,4.4703 2.4779,2.5951 4.2581,5.7929 5.3464,9.1973 0.7254,1.9978 0.7367,4.1297 1.1105,6.2057 -0.3069,2.4778 -0.6195,5.2404 -2.6397,6.9929 -1.4286,1.3727 -3.5159,1.2165 -5.3296,1.0659 -5.5529,-2.1598 -9.3535,-7.2998 -11.3235,-12.7577 -1.2221,-3.5106 -1.8305,-7.4561 -0.5692,-11.0445l0 -0.0002zm-40.0033 56.305c6.4682,0.0615 12.9083,-0.9487 19.3821,-0.4911l-0.1786 0.7646c-0.7646,0.0223 -1.5347,0.0391 -2.2993,0.0669 -7.9136,0.452 -15.8998,1.239 -23.7967,0.0671 -0.3124,-0.0783 -0.6193,-0.1676 -0.9207,-0.268 2.6006,-0.2678 5.2069,0.0225 7.813,-0.1395l0.0002 0zm9.9896 6.0942c5.0841,-2.69 11.2565,-4.1967 16.8987,-2.5057 -3.5214,0.2064 -7.0653,0.3795 -10.5199,1.1441 -2.1374,0.3961 -4.2135,1.0994 -6.3788,1.3617l0 -0.0001zm-34.1435 0.7144c1.0326,-0.2177 2.0705,-0.4297 3.1141,-0.6083 2.1822,-0.3181 4.4982,-0.279 6.5185,0.7144 2.9746,1.4508 6.15,2.4052 9.2641,3.4935 -5.9156,0.4576 -10.8212,-4.2191 -16.7704,-3.4824 -0.7144,-0.0223 -1.4174,-0.0614 -2.1263,-0.1172zm36.0577 13.606c0.5917,-2.2491 2.8741,-3.2592 4.9334,-3.8005 3.4379,-0.9935 7.3556,-0.5023 10.2743,1.6352l-0.0669 0.9766c-1.1385,-1.0549 -2.6343,-1.5124 -4.1411,-1.691 -0.5747,1.2166 -1.211,2.718 -2.7233,2.9355 -1.7802,0.3124 -3.1587,-1.0659 -4.0573,-2.4109 -1.596,0.3906 -3.1364,1.0716 -4.2191,2.3552l0 -0.0001zm-34.7796 -0.3683c3.8285,-2.8407 8.8623,-2.2211 13.3214,-1.9087 1.6073,0.0334 2.6676,1.3172 3.7113,2.3719l-1.7078 -0.6641c-1.3562,-0.6586 -2.8685,-0.7814 -4.3475,-0.7701 -0.0389,0.4519 -0.1172,1.3617 -0.1619,1.8192 -2.1764,1.5069 -5.5528,0.8818 -6.1277,-1.9868 -1.1161,0.374 -2.2323,0.7535 -3.3541,1.1218 -0.3347,0.0056 -0.999,0.0168 -1.3337,0.0168zm35.3099 15.1797c1.4733,2.3049 2.5893,4.8721 2.3606,7.6681 4.6209,2.2211 8.4102,6.7194 8.6111,11.9932 -5.5138,1.4342 -11.1057,2.5114 -16.6364,3.8453 -7.7406,1.0156 -15.3025,-1.4344 -22.7251,-3.2649 1.6298,-6.0217 7.0431,-10.7096 13.3103,-11.1951 -1.3672,-0.2289 -3.0527,0.0279 -4.0294,-1.1551 -0.6641,-1.3005 -0.1395,-2.8129 -0.0669,-4.1857 0.2121,1.2277 0.5747,2.4276 1.3673,3.4211 1.2501,-0.0169 2.5224,-0.1452 3.7559,0.1283 1.5068,0.6251 2.7178,1.797 4.2637,2.3383 1.4287,0.4577 3.0304,0.1899 4.2972,-0.597 1.2949,-0.8206 2.5059,-1.7691 3.7281,-2.69l0.1283 1.2053c0.893,-0.7087 1.9365,-1.3337 2.4835,-2.3774 0.1228,-1.7523 -0.5413,-3.432 -0.8484,-5.1342l0.0002 -0.0002zm-0.374 9.7944c1.2724,3.3932 1.3896,7.1268 0.2455,10.5701 2.6789,-0.5526 5.4301,-0.2288 8.1424,-0.4911 -1.3338,-4.3197 -4.9334,-7.4058 -8.3879,-10.079zm-6.7752 1.8919c0.4466,3.1978 0.8707,6.4013 1.3785,9.5935 1.5627,-0.4186 3.1532,-0.7646 4.766,-0.9487 -0.3069,-3.5552 -0.3906,-7.2327 -1.8416,-10.5534 -1.4008,0.7087 -2.7346,1.6129 -4.3029,1.9086zm-15.3584 8.3823c2.5226,0.3405 5.0731,0.3126 7.6123,0.4076 0.2623,-3.2203 1.9978,-6.0386 2.8406,-9.0577 -4.3084,1.6909 -7.8355,4.8776 -10.4529,8.6503l0 -0.0002zm12.9419 -8.4549c-1.557,2.8964 -2.8964,5.899 -4.3251,8.8569 1.825,0.2343 3.6387,0.5915 5.4692,0.7924 0.2457,-3.2145 0.4241,-6.4346 0.8705,-9.6269l-2.0146 -0.0223 0 -0.0001zm-11.262 21.8099c5.3073,-3.2759 12.0323,-4.3474 18.0651,-2.7289 -3.5773,0.4798 -7.2104,0.5747 -10.7654,1.2444 -2.4723,0.3236 -4.8331,1.1831 -7.2997,1.4845z"/>
   <path id="_114281080" fill="#00782E" d="M48.129 142.471c0.6194,-1.4399 0.6752,-3.555 2.3662,-4.1856 -0.1173,1.6462 -0.6418,3.2146 -1.239,4.7437 -5.9602,17.5738 -10.2296,35.6669 -13.7623,53.8715 -0.48,2.7626 -1.3616,5.5083 -1.1887,8.3433 8.9685,-0.5972 17.9312,-1.3616 26.9275,-1.3561 4.3587,-0.5638 8.7562,-0.413 13.1371,-0.6027 4.8834,-0.6195 9.8112,-0.5078 14.7278,-0.5972 10.9665,-0.5246 21.9717,-0.6809 32.9325,0.0113 2.824,0.0389 5.6421,0.1338 8.4661,0.1784 -0.9933,-1.4119 -3.315,-1.7523 -3.3541,-3.767 -1.6519,-11.2732 -2.4445,-22.6469 -3.3652,-33.9927 -0.3739,-3.5159 -0.5916,-7.0597 -0.4075,-10.5979 3.0472,19.2257 6.0831,38.5075 11.1617,57.3261 0.9377,4.2972 2.5449,8.4102 3.4936,12.7019 -0.865,0.0335 -1.7412,0.0503 -2.595,-0.0669 -34.7573,-4.8386 -69.5371,-9.4819 -104.283,-14.3651 0.0894,-3.5271 1.0101,-6.9536 1.5682,-10.4249 3.834,-19.3935 9.08,-38.491 15.4142,-57.2201l0.0001 0z"/>
  </g>
 </g>
</svg>
