<svg width="313" height="279" viewBox="0 0 313 279" fill="none" xmlns="http://www.w3.org/2000/svg">
<g clip-path="url(#clip0_229_197)">
<g clip-path="url(#clip1_229_197)">
<g clip-path="url(#clip2_229_197)">
<path d="M312.996 116.159C313.119 113.187 310.378 108.765 309.378 105.976C307.691 101.27 305.879 97.2112 303.64 92.824C302.869 91.3111 302.528 89.709 301.635 88.2168C300.571 86.4426 298.692 85.3886 297.66 83.6805C296.886 82.3959 297.225 80.9422 296.506 79.623C295.635 78.0271 294.059 77.0393 292.807 75.7847C292.806 75.7854 292.804 75.7854 292.803 75.7862C292.804 75.7847 292.806 75.7839 292.807 75.7824C290.178 73.1056 287.655 70.272 284.56 68.1149C282.273 66.5213 278.101 66.3229 276.829 63.6039C274.266 61.4529 271.756 59.335 268.979 57.4508C267.84 56.6782 258.795 52.0865 258.795 51.1809C256.37 50.3868 255.143 47.5117 252.307 47.424C251.377 45.8981 250.881 44.1423 251.168 42.3534C251.39 40.9719 253.922 38.096 253.007 36.7892C253.007 36.7892 253.005 36.7892 253.005 36.7884C253.007 36.7884 253.007 36.7884 253.007 36.7884C252.099 34.1847 252.85 31.1143 250.793 28.8303H250.791C250.791 28.8303 250.792 28.8303 250.792 28.8296C251.639 25.9291 248.306 21.5434 247.139 19.1041C245.236 15.1205 243.337 11.1338 241.435 7.15012C239.98 4.7793 237.132 11.4643 236.411 12.6144C233.998 16.4597 231.561 20.3088 228.653 23.8043L228.654 23.805C227.299 24.4831 225.995 28.1039 225.167 29.3731C223.495 31.9415 221.109 33.5535 218.987 35.6968C214.411 40.3193 211.05 45.6736 204.895 48.4319C198.544 51.2793 191.325 51.3262 184.95 54.3697C182.366 55.6027 179.812 57.0334 177.333 58.4686C175.1 59.7624 170.552 60.0223 169.059 62.001C169.758 61.9126 169.964 62.1086 169.99 62.4069C169.683 62.2862 169.374 62.1532 169.06 62.001C165.435 63.9529 161.928 66.8387 158.365 68.623C158.366 68.6222 158.368 68.6207 158.368 68.6199C155.504 69.7039 140.236 86.9284 143.995 88.1953C145.342 88.8618 147.529 91.0097 148.91 90.8198C154.03 88.8049 156.043 81.4403 162.724 82.2168C162.728 82.2775 162.724 82.3375 162.738 82.399C163.474 82.186 164.367 82.5865 164.538 83.3676C163.929 83.5044 163.332 83.6966 162.753 83.991C161.499 85.0627 160.834 86.305 161.569 87.9747C161.586 87.9954 161.605 88.0085 161.622 88.0293C160.426 89.0056 159.722 90.294 159.039 91.6485C151.83 92.1129 143.801 92.7255 136.666 90.4278C136.458 90.1664 136.235 89.9135 136.003 89.6698C134.696 89.4007 133.424 89.3346 132.319 90.2855C132.313 90.364 132.368 90.4347 132.441 90.5031C132.347 90.4677 132.291 90.4039 132.319 90.2855C125.372 93.8318 117.971 98.5803 110.685 101.239C103.733 103.775 95.9149 101.774 88.943 104.759V104.76C88.943 104.76 88.943 104.76 88.9422 104.76C85.574 105.837 94.5478 118.141 96.202 119.332C96.202 119.333 96.2012 119.333 96.2012 119.333C96.6456 121.74 98.3205 127.569 99.8603 129.395C101.016 130.766 102.774 128.86 103.836 128.521C105.668 127.936 106.905 129.516 107.798 130.844C113.435 136.978 118.159 142.355 126.753 144.176C123.305 140.577 120.086 136.869 117.781 132.48C117.78 132.48 117.78 132.48 117.779 132.48C117.569 130.042 117.443 127.599 116.805 125.202C118.526 128.34 123.238 134.319 123.774 127.767C124.308 121.259 126.614 127.448 129.605 125.716C129.008 122.901 128.295 120.549 130.498 118.326C132.205 116.604 134.634 113.046 136.693 112.015C136.693 112.016 136.692 112.017 136.691 112.017C141.048 111.998 145.403 111.975 149.76 111.956C149.759 111.954 149.758 111.953 149.758 111.952C149.764 111.95 149.772 111.949 149.778 111.947C149.778 111.948 149.778 111.949 149.777 111.95C155.541 112.473 161.202 115.188 167.103 112.778C162.619 119.52 172.731 121.197 175.732 125.101C172.827 135.62 171.527 146.636 172.774 157.574C170.82 161.206 168.096 164.433 164.492 166.503C162.621 167.578 160.484 168.447 158.335 168.732C156.645 168.955 153.469 167.418 152.159 167.941C151.911 168.432 152.055 168.852 152.591 169.201C152.59 169.201 152.59 169.201 152.59 169.201C152.814 170.122 153.083 171.228 153.307 172.148C150.506 172.322 148.089 170.786 145.419 170.122C145.374 171.351 146.082 171.809 146.747 172.296H146.746C146.409 173.63 147.711 174.412 148.175 175.66H143.997C143.997 175.661 143.997 175.661 143.997 175.663C141.919 174.942 139.843 174.223 137.106 173.278C139.074 175.54 140.803 177.619 143.156 179.407H143.157C143.678 180.422 144.788 180.211 145.317 181.401C143.903 182.545 144.581 183.568 146.367 183.637C148.414 183.716 148.051 185.852 149.905 186.834C153.815 188.909 158.675 185.078 162.639 185.018C162.639 185.018 162.639 185.019 162.639 185.02C167.01 184.611 169.057 175.978 171.905 173C175.609 169.128 180.388 166.525 185.192 164.28C186.851 163.506 189.873 162.967 190.709 161.111C192.092 158.038 191.503 158.585 195.052 158.916C198.166 159.208 201.172 158.075 204.263 157.964C207.167 157.859 209.879 158.517 212.545 156.878C212.545 155.272 213.104 153.093 211.969 151.733H211.969C212.382 151.733 208.857 142.194 208.316 141.354C205.858 137.533 201.668 135.21 199.135 131.481C201.39 129.387 205.553 133.66 207.805 135.063C212.613 138.058 212.528 140.316 213.56 145.413C214.329 149.205 217.683 153.241 217.468 157.075C217.406 158.2 214.948 161.226 216.719 161.988C217.152 162.175 218.691 160.593 219.761 160.497C219.758 160.513 219.757 160.528 219.757 160.544C219.764 160.538 219.771 160.531 219.778 160.524C219.775 160.997 219.77 161.471 219.764 161.944C219.765 161.945 219.765 161.947 219.767 161.947C219.765 161.947 219.765 161.947 219.765 161.947C219.214 163.081 218.563 164.221 218.162 165.421C217.65 166.957 219.6 167.03 219.954 168.267C220.223 169.203 216.96 178.551 216.17 179.341C216.17 179.34 216.17 179.337 216.171 179.336C214.653 181.793 216.067 184.603 215.231 187.142C215.468 186.983 207.751 197.269 214.66 187.925H214.657C213.102 188.724 212.617 190.677 212.482 192.281C209.433 193.025 206.709 199.02 205.34 201.486C207.748 201.226 210.072 200.535 212.308 199.619C213.444 199.154 215.796 197.496 216.989 197.496C218.145 197.399 219.498 197.679 219.842 196.016V196.012C222.148 193.596 225.507 193.953 227.978 191.601C229.078 190.555 229.41 189.186 230.318 188.038C231.422 186.641 233.529 186.67 235.045 185.965C239.705 183.8 248.532 175.728 248.615 170.277C249.781 171.407 249.12 172.588 249.454 173.56H249.453C249.458 174.02 249.458 174.479 249.465 174.936C249.467 174.938 249.466 174.938 249.464 174.938C249.02 177.728 245.844 179.683 245.661 182.098C245.661 182.097 245.661 182.097 245.661 182.097C241.541 182.931 238.23 184.841 237.1 189.441C234.923 192.768 231.012 193.833 228.35 196.619C221.51 199.614 231.425 208.221 227.136 214.043C224.708 221.058 218.196 225.617 211.913 228.661C207.919 230.594 204.093 232.854 200.095 234.779C195.737 236.88 191.187 237.674 186.647 239.212C189.017 240.59 191.104 239.699 193.06 240.03C192.491 241.125 191.012 240.357 190.549 241.012C195.083 242.722 199.966 242.819 204.747 242.847C209.78 242.876 215.035 243.645 219.932 242.13C229.993 239.017 237.223 231.413 244.316 224.146C244.315 224.146 244.315 224.144 244.315 224.144C246.884 220.96 250.082 217.998 252.239 214.537C253.777 212.07 258.289 207.44 258.021 204.614C262.377 202.267 266.637 199.728 271.395 198.264C274.164 197.411 275.208 199.937 276.733 201.822C277.711 206.915 275.517 211.891 276.164 216.971C276.165 216.971 276.165 216.971 276.166 216.971C274.501 223.562 272.26 229.899 267.888 235.366C275.739 228.677 283.266 221.854 289.082 213.249C294.651 205.008 298.729 195.872 302.137 186.555C302.137 186.555 302.137 186.554 302.137 186.554C302.383 185.861 302.47 185.147 302.401 184.413C302.563 182.913 304.096 181.538 304.69 180.178C306.124 176.89 305.905 173.293 304.403 170.072C307.105 169.329 308.576 167.344 308.657 164.568C308.709 162.83 307.319 155.828 308.486 154.66C309.387 153.138 308.009 146.486 307.275 144.774C305.77 141.254 302.183 140.676 299.856 138.098C299.855 138.099 299.855 138.1 299.855 138.101V138.098L300.752 137.843C300.753 137.843 300.753 137.842 300.754 137.84C300.754 137.84 300.754 137.842 300.755 137.842C302.844 138.221 309.379 140.226 306.483 135.875C306.678 133.148 303.336 125.532 301.433 123.628L301.44 123.633C301.841 120.643 297.034 115.806 295.324 113.582C292.493 109.905 289.012 106.723 284.829 104.662C286.327 102.027 288.464 100.129 291.278 98.9939C296.302 101.504 299.837 104.228 303.346 108.606C305.218 110.941 307.357 113.049 309.165 115.438C310.299 116.939 312.826 120.301 312.996 116.159ZM83.9629 11.4712C83.2805 11.8318 81.7131 12.0724 81.2318 12.6697C85.6316 14.4471 91.1244 16.0891 94.6415 19.4754C96.1221 20.9015 96.3348 22.9594 97.632 24.4992C99.062 26.1958 101.21 26.8746 103.281 27.4028C107.463 28.9733 109.191 34.6298 114.604 33.8372C117.938 33.3483 124.177 27.751 120.167 24.6176C120.166 24.6176 120.165 24.6176 120.164 24.6176C120.164 24.6176 120.164 24.6176 120.164 24.6168C123.177 21.8147 103.339 14.168 100.724 13.2301C90.69 9.63317 80.0989 6.95793 69.3834 8.51695C72.1598 9.08044 74.9361 9.64393 77.7132 10.2067C79.1532 10.498 82.5613 11.8218 83.9629 11.4712ZM85.8511 212.245C85.0083 205.841 84.95 200.499 85.1918 194.047C85.4696 186.644 84.8241 179.22 85.5218 171.83C82.4745 176.609 81.5227 181.661 79.9423 187.001C77.9542 193.719 75.8611 200.409 74.1486 207.205C73.4631 209.926 72.8391 212.662 72.3079 215.418C70.7037 216.465 74.7596 219.524 75.541 220.353C76.8044 221.693 77.5958 224.247 79.7427 222.509C81.9403 220.727 84.0036 218.784 86.109 216.897V216.896C86.1113 216.894 86.1113 216.894 86.109 216.894C86.3854 215.326 86.0553 213.795 85.8511 212.245ZM35.5829 89.3507C39.5836 82.6988 43.5528 75.8923 48.2296 69.6831C51.4888 65.3558 59.0034 60.8748 52.6877 55.0269C48.6487 53.83 46.7536 58.3387 45.0449 61.1062C42.2371 65.6572 39.5874 70.3119 37.2509 75.1251C32.5863 84.7337 29.3978 94.8627 27.868 105.438C29.1491 102.494 30.1393 99.4375 31.2638 96.4332C31.7082 95.2317 32.1879 94.0432 32.7022 92.8693C33.5788 90.889 34.5575 91.0612 35.5829 89.3507ZM270.33 203.903C271.433 203.108 271.329 201.283 269.705 202.156C267.513 203.346 264.992 203.853 263.008 205.437C259.325 208.38 256.461 212.157 253.812 216.023C248.535 223.722 242.571 232.466 234.652 237.499C230.584 240.084 226.719 243.024 222.369 245.137C218.971 246.786 215.421 246.981 213.459 250.648C211.206 254.848 208.457 258.793 205.14 262.222C202.64 264.807 196.497 267.544 196.013 271.382C200.951 268.426 207.207 267.746 212.601 265.99C216.721 264.651 225.28 262.036 227.752 258.24C228.997 257.595 229.594 256 231.2 255.885C231.2 255.887 231.2 255.887 231.2 255.887C236.107 252.225 242.677 250.34 246.262 245.105C247.674 243.045 249.917 240.904 251.063 238.767C251.933 237.147 248.501 236.069 250.79 234.24C255.597 235.94 258.629 228.095 259.956 224.99C262.971 217.928 266.882 210.809 270.33 203.903ZM120.966 11.2099C123.64 12.4706 127.662 15.7109 130.66 15.3419C134.428 14.8791 137.315 11.9056 141.293 11.8203C145.51 11.7303 149.064 10.4527 153.233 9.87225C158.363 9.15732 163.527 8.69299 168.699 8.44161C179.041 7.94039 189.409 8.29555 199.723 9.15809C203.486 9.47481 207.468 8.99665 211.058 9.70697C214.221 10.3327 216.927 11.7657 220.216 12.0678C218.514 10.0737 216.568 9.77693 214.705 9.30722C182.391 -2.11329 147.437 -3.58621 114.824 8.03341C117.361 8.63534 119.051 9.03739 120.741 9.43791C119.88 10.1482 119.834 10.6764 120.966 11.2099ZM79.6092 256.022C79.6061 256.022 79.6045 256.022 79.6015 256.02H79.6076C77.9711 254.02 76.9572 255.359 75.9432 256.706C72.7823 257.216 79.3582 262.648 80.303 263.733C82.1706 265.877 85.6807 272.655 88.3865 272.594C88.3857 272.592 88.3834 272.589 88.3826 272.586C89.0757 273.974 92.407 278.33 94.0144 279.001C93.5431 275.029 90.7598 269.788 89.1809 265.999C87.2988 261.485 84.3006 257.759 79.6092 256.022ZM34.7048 111.266C36.5248 109.184 35.6658 109.939 37.3215 109.946C38.4015 109.95 41.3836 105.744 42.2632 104.966C46.7252 101.019 51.8994 97.9945 57.1842 95.297C59.54 94.8911 67.8053 91.5063 67.6019 96.2187C67.3846 101.236 63.8338 107.027 62.0093 111.665C57.4506 123.256 49.959 137.881 51.1234 150.663C55.2852 133.506 61.3929 117.845 68.6166 101.785C68.6158 101.784 68.6158 101.784 68.6158 101.784C69.5623 99.868 71.7637 98.5734 71.9249 96.2795C72.1014 93.7534 73.8799 93.5596 75.9063 91.6747C77.5643 89.2877 82.5582 84.5584 79.6974 81.5849C80.1127 81.561 80.531 81.5364 80.9486 81.5141C78.2774 82.8518 86.2257 80.5224 83.8401 81.2997C85.6255 80.7185 87.0209 79.3693 88.2936 78.0502C94.7336 75.8223 100.378 73.2693 106.336 70.0414C112.261 68.0757 115.738 62.5307 120.82 59.2597V59.2581C124.166 57.3386 125.076 58.7292 128.464 59.6963C129.92 60.1114 138.715 62.4192 138.873 60.6057C140.415 61.3845 140.967 63.5347 143.26 63.4263C142.046 62.0041 140.831 60.5834 139.617 59.1628C139.815 58.6608 140.011 58.1588 140.208 57.6576C138.333 51.3562 136.263 43.8601 129.347 41.4609C124.694 39.8457 119.787 39.233 114.92 38.6642C112.302 38.3574 105.511 38.5158 103.567 36.6001C101.62 35.4008 99.6722 34.2 97.7264 33C97.7264 33.0008 97.7256 33.0016 97.7256 33.0023C96.453 31.7277 95.7291 30.537 94.0266 29.7144C89.8003 26.8108 84.6169 26.2543 79.6383 25.9468C75.6361 26.7401 70.402 24.5307 66.2348 24.4077C61.1841 24.2586 56.1288 24.204 51.0781 24.3693C41.6399 24.6768 32.0713 25.0696 22.6975 26.252C18.0475 26.8385 13.4244 27.7034 8.92713 29.0364C7.38198 29.4945 1.20065 30.5923 0.283385 32.2167C-1.53885 35.4462 6.02797 34.5798 7.09798 34.6836C11.8201 35.1418 16.4295 36.4071 21.1693 36.7292C21.1693 36.7292 21.1693 36.73 21.1693 36.7308C21.6859 36.8307 28.3546 38.6211 28.3546 38.219C32.3867 39.1562 36.0351 41.4301 40.2023 41.8429C43.4676 42.1666 44.8024 44.0285 47.9878 41.6361C47.9878 41.6377 47.9871 41.6384 47.9871 41.64C48.7623 49.6027 58.0923 46.9451 62.9588 46.0534C63.166 46.49 63.4631 46.8052 63.8507 46.9989C61.3422 46.9989 59.1761 53.1497 59.7303 55.0454C60.3582 57.1917 60.8487 61.3999 63.6926 61.3068C65.4012 62.0464 68.4416 60.5712 70.1518 60.1706C73.0333 59.4949 75.9831 58.4056 78.87 59.7386C74.101 66.0385 69.6858 73.8097 68.0256 81.5872C68.0271 81.5895 68.0286 81.591 68.0317 81.5933C68.0286 81.5918 68.0271 81.5902 68.0248 81.5887C61.6347 85.6977 54.9191 88.4859 49.0279 93.5043C43.2411 98.435 38.2495 104.247 34.0102 110.55C25.8953 122.382 19.3939 134.891 17.6998 149.408C19.7047 146.981 20.0601 141.723 21.0787 138.734C22.2938 135.163 23.7069 131.661 25.3258 128.256C26.9507 124.839 28.7822 121.52 30.814 118.328C31.8348 116.72 35.4333 113.413 34.7048 111.266ZM53.5689 230.437C50.9077 228.022 49.7149 224.365 46.881 222.112C43.06 219.074 35.5123 218.383 30.8577 216.957C33.5819 221.18 37.7015 222.736 40.4417 225.805C43.8751 228.719 46.7083 232.914 52.2418 231.357C52.241 231.357 52.241 231.355 52.241 231.355C52.4275 231.372 54.3342 231.134 53.5689 230.437ZM160.653 267.665C157.569 268.005 154.843 266.211 151.825 266.177V266.18C138.407 263.63 125.867 259.904 113.598 253.795H113.599C113.346 250.562 120.85 249.758 122.9 249.414C127.199 248.693 131.19 246.856 135.296 245.473C139.658 244.006 144.244 243.872 148.626 242.561C149.27 242.368 152.027 241.723 152.24 240.632C151.565 239.804 151.649 239.256 152.493 238.988C153.102 238.862 153.487 238.492 153.649 237.882C149.432 237.925 145.261 238.641 141.05 238.796C137.299 238.934 133.365 238.324 129.675 238.62C126.908 238.841 124.954 238.244 122.023 237.876C118.264 237.406 114.51 238.796 110.765 238.023C114.642 235.521 119.091 233.436 121.532 229.305C122.902 226.987 125.855 226.907 128.063 225.129C130.707 222.997 133.393 220.914 136.082 218.837C140.922 215.099 145.778 211.375 150.432 207.405C152.067 206.011 156.658 201.907 156.056 199.206C153.461 201.091 151.124 202.784 148.788 204.479C148.788 204.48 148.789 204.48 148.791 204.481C144.369 206.895 139.819 209.173 135.615 211.928C133.712 213.176 131.467 213.712 129.385 214.57C127.766 215.235 124.858 219.047 123.883 219.167C121.42 219.469 120.029 218.801 117.546 219.988C115.048 221.183 112.158 222.24 109.461 222.862C103.413 224.262 94.4711 225.309 89.6983 229.137C84.613 228.707 79.385 229.382 74.5255 227.187L74.5232 227.191C74.5239 227.189 74.5239 227.187 74.5255 227.187C72.8007 224.989 69.8785 224.282 68.1138 222.137C65.6998 219.206 63.133 216.409 60.6115 213.572C55.907 208.279 51.8142 202.853 48.4453 196.612C41.2377 183.258 35.5369 170.083 31.2599 155.462C31.5324 163.145 33.5005 170.612 35.3642 178.028C36.1694 181.234 36.4803 184.579 37.5963 187.692C38.3079 189.675 40.0802 195.985 41.9746 196.742C43.5512 203.575 46.0551 209.746 49.2866 215.968C50.8878 219.052 61.7444 233.43 58.6542 235.646C57.8912 235.884 57.1313 236.122 56.3691 236.363C56.3721 236.367 56.3737 236.369 56.3767 236.373C56.3737 236.369 56.3714 236.367 56.3683 236.365C45.6958 239.104 34.7693 238.313 23.8696 238.868C25.8608 239.469 27.8526 240.069 29.8437 240.67C29.9635 240.957 28.8781 241.819 29.1698 241.985C30.3004 242.627 34.4016 242.096 36.0212 242.52C39.5222 243.439 43.0285 244.336 46.5578 245.141C52.9119 246.59 59.3496 247.735 65.8595 248.165C70.5832 248.475 75.65 248.521 79.5884 251.542C82.8568 254.049 86.2349 255.612 89.7006 257.484C93.8025 259.491 98.1347 260.967 102.481 262.342C105.972 263.447 110.88 266.103 114.514 266.064C118.531 266.022 123.283 267.764 127.368 268.248C130.488 268.617 137.243 271.465 139.537 268.375C139.537 268.374 139.537 268.374 139.538 268.371V268.375C140.091 271.668 156.867 270.577 160.256 270.874C163.337 271.143 166.238 270.288 168.88 270.702C172.53 271.275 176.1 269.991 179.722 269.813C173.341 269.01 166.945 268.836 160.654 267.661V267.665" fill="black"/>
</g>
</g>
</g>
<defs>
<clipPath id="clip0_229_197">
<rect width="313" height="279" fill="white"/>
</clipPath>
<clipPath id="clip1_229_197">
<rect width="313" height="279" fill="white"/>
</clipPath>
<clipPath id="clip2_229_197">
<rect width="313" height="279" fill="white"/>
</clipPath>
</defs>
</svg>
